<svg xmlns="http://www.w3.org/2000/svg" viewBox="0 0 400 300" width="406" height="306" class="illustration styles_illustrationTablet__1DWOa"><g id="_495_business_conference_outline" data-name="#495_business_conference_outline"><rect x="95.69" y="71.16" width="208.62" height="95.73" fill="#fff"></rect><path d="M304.31,167.89H95.69a1,1,0,0,1-1-1V71.16a1,1,0,0,1,1-1H304.31a1,1,0,0,1,1,1v95.73A1,1,0,0,1,304.31,167.89Zm-207.62-2H303.31V72.16H96.69Z" fill="#093f68"></path><polygon points="304.31 166.89 95.69 166.89 80.43 221.67 319.57 221.67 304.31 166.89" fill="#2C0703"></polygon><path d="M319.57,222.67H80.43a1,1,0,0,1-1-1.27l15.27-54.78a1,1,0,0,1,1-.73H304.31a1,1,0,0,1,1,.73l15.27,54.78a1,1,0,0,1-1,1.27Zm-237.83-2H318.26l-14.71-52.78H96.45Z" fill="#093f68"></path><rect x="80.43" y="221.67" width="239.02" height="7.17" fill="#093f68"></rect><path d="M319.45,229.84h-239a1,1,0,0,1-1-1v-7.17a1,1,0,0,1,1-1h239a1,1,0,0,1,1,1v7.17A1,1,0,0,1,319.45,229.84Zm-238-2h237v-5.17h-237Z" fill="#093f68"></path><path d="M185.09,154.17H108.58a1,1,0,0,1-1-1V107.83a1,1,0,0,1,2,0v44.34h75.51a1,1,0,0,1,0,2Z" fill="#093f68"></path><rect x="120.41" y="140.18" width="8.8" height="12.99" fill="#f56132"></rect><path d="M129.21,154.17h-8.8a1,1,0,0,1-1-1v-13a1,1,0,0,1,1-1h8.8a1,1,0,0,1,1,1v13A1,1,0,0,1,129.21,154.17Zm-7.8-2h6.8v-11h-6.8Z" fill="#093f68"></path><rect x="140.49" y="116.91" width="8.8" height="36.26" fill="#70cc40"></rect><path d="M149.29,154.17h-8.8a1,1,0,0,1-1-1V116.91a1,1,0,0,1,1-1h8.8a1,1,0,0,1,1,1v36.26A1,1,0,0,1,149.29,154.17Zm-7.8-2h6.8V117.91h-6.8Z" fill="#093f68"></path><rect x="160.57" y="128.11" width="8.8" height="25.06" fill="#ffbc0e"></rect><path d="M169.37,154.17h-8.8a1,1,0,0,1-1-1V128.11a1,1,0,0,1,1-1h8.8a1,1,0,0,1,1,1v25.06A1,1,0,0,1,169.37,154.17Zm-7.8-2h6.8V129.11h-6.8Z" fill="#093f68"></path><path d="M225.63,120.36a21.74,21.74,0,0,1-5.52,5.6,22.19,22.19,0,1,1,5.52-5.6Z" fill="#70cc40"></path><path d="M207.34,131a23.34,23.34,0,0,1-4-.34,23.21,23.21,0,0,1,3.95-46.09,23.21,23.21,0,0,1,19.15,36.31A23.23,23.23,0,0,1,207.34,131Zm0-44.43a21.21,21.21,0,1,0,12.23,38.54,20.77,20.77,0,0,0,5.27-5.35h0a21.21,21.21,0,0,0-17.5-33.18Z" fill="#093f68"></path><path d="M225.63,120.36,207.3,107.83V85.62h0a22.22,22.22,0,0,1,18.32,34.75Z" fill="#ffbc0e"></path><path d="M225.63,121.36a1,1,0,0,1-.57-.18l-18.33-12.52a1,1,0,0,1-.43-.83V85.62a1,1,0,0,1,.27-.69,1.07,1.07,0,0,1,.74-.32h0a23.21,23.21,0,0,1,19.14,36.31A1,1,0,0,1,225.63,121.36ZM208.3,107.3l17,11.66a21.21,21.21,0,0,0-17-32.32Z" fill="#093f68"></path><path d="M255.45,89.9s-3.52-1.17-6.86,2.94c-3.12,3.85-3,9.37-3.11,14-.19,5.55-.59,9.9-3.8,16.34,1.56,1.09,1.91,1.82,3.68,2.54.61-1.12,2-3.23,2-3.23a24.28,24.28,0,0,1,.45,4,45.52,45.52,0,0,0,18.61,3.14c4.09-.18,8.43-1,11.84-3.4,3-2.13.7-7.59.83-11,.24-6.29.14-15.07-3.11-20.79C271.78,86.93,260.38,83.5,255.45,89.9Z" fill="#725858"></path><path d="M264.59,130.64a46.67,46.67,0,0,1-17.09-3.25,1,1,0,0,1-.64-1,7.79,7.79,0,0,0-.06-1.22c-.22.35-.42.69-.57,1a1,1,0,0,1-1.25.45,8.33,8.33,0,0,1-2.61-1.66,16,16,0,0,0-1.26-1,1,1,0,0,1-.33-1.27c3.14-6.28,3.51-10.56,3.7-15.92l0-1.32c.13-4.45.26-9.49,3.3-13.24,2.86-3.52,5.91-3.59,7.25-3.41a10.21,10.21,0,0,1,8.63-3.23,17.15,17.15,0,0,1,13.21,8.34c3.39,6,3.48,15,3.24,21.31a21.09,21.09,0,0,0,.33,3.38c.47,3.09,1,6.59-1.59,8.42-3.09,2.18-7.13,3.35-12.37,3.58C265.87,130.62,265.23,130.64,264.59,130.64Zm-15.74-4.87a44.81,44.81,0,0,0,17.58,2.83c4.84-.21,8.53-1.26,11.3-3.21,1.58-1.12,1.17-3.85.77-6.49a20.59,20.59,0,0,1-.36-3.75c.23-6.05.16-14.73-3-20.25a15.31,15.31,0,0,0-11.61-7.34,8.14,8.14,0,0,0-7.3,3,1,1,0,0,1-1.1.34c-.14,0-3-.85-5.78,2.62-2.62,3.22-2.74,7.9-2.86,12l0,1.34c-.18,5.4-.55,9.76-3.53,16l.73.6a7.72,7.72,0,0,0,1.29,1c.68-1.12,1.57-2.44,1.62-2.51a1,1,0,0,1,1.81.38A29.49,29.49,0,0,1,248.85,125.77Z" fill="#093f68"></path><path d="M281,155.58V138.16a10.45,10.45,0,0,0-10.45-10.45H254.08a10.45,10.45,0,0,0-10.45,10.45v17.42Z" fill="#2C0703"></path><path d="M281,156.58H243.63a1,1,0,0,1-1-1V138.16a11.46,11.46,0,0,1,11.45-11.45h16.48A11.46,11.46,0,0,1,282,138.16v17.42A1,1,0,0,1,281,156.58Zm-36.38-2H280V138.16a9.46,9.46,0,0,0-9.45-9.45H254.08a9.46,9.46,0,0,0-9.45,9.45Z" fill="#093f68"></path><polygon points="266.76 127.71 262.42 147.39 257.98 127.71 266.76 127.71" fill="#093f68"></polygon><path d="M262.42,148.39a1,1,0,0,1-1-.78L257,127.93a1,1,0,0,1,.2-.85,1,1,0,0,1,.78-.37h8.78a1,1,0,0,1,1,1.21l-4.35,19.69a1,1,0,0,1-1,.78Zm-3.19-19.68,3.18,14.09,3.11-14.09Z" fill="#093f68"></path><path d="M252.15,156.58a1,1,0,0,1-1-1V136.7a1,1,0,0,1,2,0v18.88A1,1,0,0,1,252.15,156.58Z" fill="#093f68"></path><path d="M272.49,156.58a1,1,0,0,1-1-1V136.7a1,1,0,0,1,2,0v18.88A1,1,0,0,1,272.49,156.58Z" fill="#093f68"></path><path d="M259.85,125.4h4.63a0,0,0,0,1,0,0v2.67a2,2,0,0,1-2,2h-.7a2,2,0,0,1-2-2V125.4A0,0,0,0,1,259.85,125.4Z" fill="#ffc9b0"></path><path d="M262.52,131h-.7a3,3,0,0,1-3-3V125.4a1,1,0,0,1,1-1h4.63a1,1,0,0,1,1,1v2.67A3,3,0,0,1,262.52,131Zm-1.67-4.63v1.67a1,1,0,0,0,1,1h.7a1,1,0,0,0,1-1V126.4Z" fill="#093f68"></path><path d="M270.42,101.86,266,96.21s-1,3.48-1.59,5.63l-6.93,0-1.63-5-1.92,5h-5.37v10.63A13.58,13.58,0,0,0,262.17,126h0a13.58,13.58,0,0,0,13.57-13.58V101.88Z" fill="#ffc9b0"></path><path d="M262.17,127a14.6,14.6,0,0,1-14.58-14.58V101.8a1,1,0,0,1,1-1h4.68L255,96.42a1,1,0,0,1,1.88,0l1.41,4.35,5.44,0c.6-2.13,1.39-4.9,1.39-4.9a1,1,0,0,1,1.75-.34l4.09,5.26,4.84,0a1,1,0,0,1,1,1v10.55A14.59,14.59,0,0,1,262.17,127ZM249.59,102.8v9.63a12.58,12.58,0,1,0,25.15,0v-9.56h-4.32a1,1,0,0,1-.79-.39l-3.18-4.08c-.32,1.15-.74,2.61-1.05,3.72a1,1,0,0,1-1,.73h0l-6.92,0a1,1,0,0,1-.95-.69l-.76-2.34-.9,2.38a1,1,0,0,1-.94.64h-4.37Z" fill="#093f68"></path><path d="M262.1,115.68a8,8,0,0,1-1.33-.11,1,1,0,0,1,.35-2,6.19,6.19,0,0,0,1.06.08,13.73,13.73,0,0,0-.9-2.15,1,1,0,0,1,1.77-.93c1.07,2,1.43,3.46,1.08,4.23a1.28,1.28,0,0,1-.86.73A5.17,5.17,0,0,1,262.1,115.68Z" fill="#093f68"></path><rect x="228.41" y="147.39" width="66.88" height="5.76" rx="2.3" fill="#725858"></rect><path d="M293,154.15H230.7a3.29,3.29,0,0,1-3.29-3.3v-1.16a3.29,3.29,0,0,1,3.29-3.3H293a3.3,3.3,0,0,1,3.3,3.3v1.16A3.3,3.3,0,0,1,293,154.15Zm-62.28-5.76a1.3,1.3,0,0,0-1.29,1.3v1.16a1.3,1.3,0,0,0,1.29,1.3H293a1.3,1.3,0,0,0,1.3-1.3v-1.16a1.3,1.3,0,0,0-1.3-1.3Z" fill="#093f68"></path><polygon points="235.51 205.47 288.18 205.47 291.6 153.15 232.09 153.15 235.51 205.47" fill="#725858"></polygon><path d="M288.18,206.47H235.51a1,1,0,0,1-1-.94l-3.42-52.32a1,1,0,0,1,.27-.75,1,1,0,0,1,.72-.31H291.6a1,1,0,0,1,1,1.06l-3.43,52.32A1,1,0,0,1,288.18,206.47Zm-51.73-2h50.79l3.29-50.32H233.15Z" fill="#093f68"></path><path d="M290.31,148.39a1,1,0,0,1-1-1v-14l-4.8-2.91a1,1,0,0,1-.34-1.37,1,1,0,0,1,1.37-.34l5.29,3.2a1,1,0,0,1,.48.85v14.56A1,1,0,0,1,290.31,148.39Z" fill="#093f68"></path><path d="M287.06,132.87a2,2,0,0,1-1.06-.31L281.8,130a2,2,0,0,1,2.12-3.39l4.2,2.61a2,2,0,0,1-1.06,3.7Z" fill="#093f68"></path><path d="M164.62,85.84h-56a1,1,0,0,1,0-2h56a1,1,0,0,1,0,2Z" fill="#dfeaef"></path><path d="M144.89,96.33H108.58a1,1,0,0,1,0-2h36.31a1,1,0,0,1,0,2Z" fill="#dfeaef"></path><path d="M164.62,96.33h-8.54a1,1,0,0,1,0-2h8.54a1,1,0,0,1,0,2Z" fill="#dfeaef"></path><path d="M197.19,154.17l-.17,0a1,1,0,0,1-.82-1.14c.05-.32,1.3-7.8,5.34-10.3a5.45,5.45,0,0,1,4.67-.54c3.22,1,5.11,3.2,6.63,5,2.06,2.39,2.87,3.15,5,1.69,4.83-3.3,5.95-10,6-10.06a1,1,0,1,1,2,.32c0,.31-1.25,7.59-6.79,11.39-3.71,2.54-5.8.11-7.65-2-1.42-1.66-3-3.54-5.7-4.36a3.46,3.46,0,0,0-3,.33c-3.27,2-4.42,8.85-4.43,8.92A1,1,0,0,1,197.19,154.17Z" fill="#dfeaef"></path></g></svg>