<svg xmlns="http://www.w3.org/2000/svg" width="90" height="80.705" viewBox="0 0 90 80.705">
  <g id="Group_2" data-name="Group 2" transform="translate(-1107.847 -486)">
    <g id="marker" transform="translate(1104 475.655)">
      <g id="Group_1" data-name="Group 1">
        <path id="Path_1" data-name="Path 1" d="M83.973,15.482c-8.094-6.516-18.963-6.875-27.081-.4a37.388,37.388,0,0,0-3.7,3.481c.626.88,1.245,1.756,1.846,2.639a96.364,96.364,0,0,1,10.365,18.8,34.063,34.063,0,0,1,2.343,9.055,18.222,18.222,0,0,1-36.2,4.107c-.589-4.056.358-7.92,1.716-11.7A90.006,90.006,0,0,1,43.814,21.746c.66-.978,1.339-1.947,2.028-2.92C41.6,15.3,34.664,10.361,29.375,10.345,15.581,10.306,5.095,21.48,3.923,35,3.4,41.062,5.635,46.178,8.806,51.049a90.351,90.351,0,0,0,15.419,17.73c8.38,7.547,16.962,14.868,25.44,22.271C51.136,89.8,73.947,70.434,82.549,60.019a111.626,111.626,0,0,0,7.535-10.564C97.939,37.3,92.321,22.2,83.973,15.482Z" fill="#c00"/>
        <path id="Path_2" data-name="Path 2" d="M37.4,52.318a12.313,12.313,0,0,0,24.462-2.773,23.019,23.019,0,0,0-1.582-6.119,65.051,65.051,0,0,0-7.005-12.707c-1.154-1.695-2.377-3.344-3.677-5.166-1.375,1.942-2.681,3.709-3.909,5.53A60.747,60.747,0,0,0,38.56,44.414,16.255,16.255,0,0,0,37.4,52.318Z" fill="#c00"/>
      </g>
    </g>
  </g>
</svg>
